<mxfile host="65bd71144e">
    <diagram id="ZyvhQtWPv9FFtB22cbN2" name="Page-1">
        <mxGraphModel dx="1197" dy="779" grid="1" gridSize="10" guides="1" tooltips="1" connect="1" arrows="1" fold="1" page="1" pageScale="1" pageWidth="850" pageHeight="1100" math="0" shadow="0">
            <root>
                <mxCell id="0"/>
                <mxCell id="1" parent="0"/>
                <mxCell id="2" value="Host (AWS EC2 instance â€“ week7_compose" style="rounded=1;fillColor=#fa6800;strokeColor=none;strokeWidth=7;perimeterSpacing=0;labelPosition=center;verticalLabelPosition=middle;align=center;verticalAlign=top;labelBorderColor=none;labelBackgroundColor=none;textShadow=1;whiteSpace=wrap;html=1;fontColor=#000000;" vertex="1" parent="1">
                    <mxGeometry x="227" y="130" width="397" height="240" as="geometry"/>
                </mxCell>
                <mxCell id="3" value="Docker Network: app_net" style="rounded=1;whiteSpace=wrap;fillColor=#ffcd28;strokeColor=#d79b00;verticalAlign=bottom;labelBorderColor=none;labelBackgroundColor=none;textShadow=1;html=1;horizontal=1;gradientColor=#ffa500;" vertex="1" parent="1">
                    <mxGeometry x="260.5" y="150" width="330" height="200" as="geometry"/>
                </mxCell>
                <mxCell id="6" style="edgeStyle=none;html=1;exitX=0.75;exitY=0;exitDx=0;exitDy=0;entryX=1;entryY=0;entryDx=0;entryDy=0;" edge="1" parent="1" source="4" target="5">
                    <mxGeometry relative="1" as="geometry"/>
                </mxCell>
                <mxCell id="4" value="&lt;font style=&quot;&quot;&gt;&lt;font style=&quot;font-size: 11px;&quot;&gt;backend&lt;br&gt;(Python HTTP server)&lt;br&gt;Port: 8000&amp;nbsp;Healthcheck: healthy âœ…&lt;/font&gt;&lt;br&gt;&lt;/font&gt;" style="rounded=0;whiteSpace=wrap;fillColor=#fff2cc;strokeColor=#d6b656;gradientColor=#ffd966;glass=0;verticalAlign=top;html=1;textShadow=1;horizontal=1;fontStyle=0;align=left;" vertex="1" parent="1">
                    <mxGeometry x="280" y="160" width="290" height="170" as="geometry"/>
                </mxCell>
                <mxCell id="30" style="edgeStyle=elbowEdgeStyle;html=1;exitX=0.5;exitY=1;exitDx=0;exitDy=0;entryX=0.5;entryY=0;entryDx=0;entryDy=0;flowAnimation=1;elbow=vertical;" edge="1" parent="1" source="31">
                    <mxGeometry relative="1" as="geometry">
                        <mxPoint x="510" y="320" as="sourcePoint"/>
                        <mxPoint x="510.75" y="400" as="targetPoint"/>
                    </mxGeometry>
                </mxCell>
                <mxCell id="5" value="&lt;b&gt;db&lt;br&gt;(Postgres)&lt;br&gt;Port: 5432&lt;/b&gt;" style="rounded=0;whiteSpace=wrap;html=1;fillColor=#d5e8d4;gradientColor=#97d077;strokeColor=#82b366;textShadow=1;labelBackgroundColor=none;labelBorderColor=none;spacingTop=0;" vertex="1" parent="1">
                    <mxGeometry x="330" y="210" width="200" height="100" as="geometry"/>
                </mxCell>
                <mxCell id="16" style="html=1;exitX=0.75;exitY=0;exitDx=0;exitDy=0;entryX=0.93;entryY=0.044;entryDx=0;entryDy=0;entryPerimeter=0;strokeColor=default;rounded=0;flowAnimation=1;shadow=1;targetPerimeterSpacing=0;sourcePerimeterSpacing=0;startArrow=classic;startFill=1;elbow=vertical;" edge="1" parent="1" source="4" target="5">
                    <mxGeometry relative="1" as="geometry"/>
                </mxCell>
                <mxCell id="19" value="&lt;div&gt;&lt;font style=&quot;color: rgb(204, 0, 0);&quot;&gt;Named Volume&lt;/font&gt;&lt;/div&gt;&lt;div&gt;&lt;font style=&quot;color: rgb(204, 0, 0);&quot;&gt;Persistent Data (/var/lib/postgresql/data)&lt;/font&gt;&lt;/div&gt;&lt;div&gt;&lt;br&gt;&lt;/div&gt;" style="rounded=0;whiteSpace=wrap;html=1;fillColor=#bac8d3;strokeColor=#23445d;glass=1;shadow=0;gradientColor=none;" vertex="1" parent="1">
                    <mxGeometry x="340.25" y="370" width="170.5" height="70" as="geometry"/>
                </mxCell>
                <mxCell id="20" value="" style="points=[];aspect=fixed;html=1;align=center;shadow=0;dashed=0;fillColor=#647687;shape=mxgraph.alibaba_cloud.user;strokeColor=#314354;fontColor=#ffffff;" vertex="1" parent="1">
                    <mxGeometry x="624" y="290" width="60" height="60" as="geometry"/>
                </mxCell>
                <mxCell id="22" value="&lt;div&gt;&lt;font style=&quot;font-size: 8px;&quot; color=&quot;#000000&quot;&gt;network: app_net&lt;/font&gt;&lt;/div&gt;&lt;div&gt;&lt;br&gt;&lt;/div&gt;" style="text;html=1;align=center;verticalAlign=middle;resizable=0;points=[];autosize=1;strokeColor=none;fillColor=none;fontSize=7;" vertex="1" parent="1">
                    <mxGeometry x="496.5" y="172" width="80" height="30" as="geometry"/>
                </mxCell>
                <mxCell id="25" value="" style="edgeStyle=none;html=1;flowAnimation=1;entryX=1;entryY=0.647;entryDx=0;entryDy=0;entryPerimeter=0;" edge="1" parent="1" source="20" target="4">
                    <mxGeometry relative="1" as="geometry">
                        <mxPoint x="640" y="251" as="sourcePoint"/>
                        <mxPoint x="750" y="260" as="targetPoint"/>
                    </mxGeometry>
                </mxCell>
                <mxCell id="26" value="&lt;div&gt;&lt;font color=&quot;#000000&quot;&gt;ðŸ§© Week7 - Docker Compose Architecture (EC2 Deployment)&lt;/font&gt;&lt;/div&gt;&lt;div&gt;&lt;br&gt;&lt;/div&gt;" style="text;html=1;align=center;verticalAlign=bottom;resizable=0;points=[];autosize=1;strokeColor=none;fillColor=none;fontStyle=1" vertex="1" parent="1">
                    <mxGeometry x="254.5" y="90" width="350" height="40" as="geometry"/>
                </mxCell>
                <mxCell id="28" value="&lt;div style=&quot;color: rgb(63, 63, 63); scrollbar-color: rgb(226, 226, 226) rgb(251, 251, 251);&quot;&gt;&lt;font style=&quot;scrollbar-color: rgb(226, 226, 226) rgb(251, 251, 251);&quot;&gt;&lt;b&gt;HTTP Request: Port 8000&lt;/b&gt;&lt;/font&gt;&lt;/div&gt;&lt;div style=&quot;color: rgb(63, 63, 63); scrollbar-color: rgb(226, 226, 226) rgb(251, 251, 251);&quot;&gt;&lt;br style=&quot;color: rgb(63, 63, 63); scrollbar-color: rgb(226, 226, 226) rgb(251, 251, 251);&quot;&gt;&lt;/div&gt;" style="text;html=1;align=center;verticalAlign=middle;resizable=0;points=[];autosize=1;strokeColor=none;fillColor=none;rotation=35;fontSize=8;" vertex="1" parent="1">
                    <mxGeometry x="570" y="252" width="120" height="30" as="geometry"/>
                </mxCell>
                <mxCell id="33" value="" style="edgeStyle=elbowEdgeStyle;html=1;exitX=0.5;exitY=1;exitDx=0;exitDy=0;entryX=0.5;entryY=0;entryDx=0;entryDy=0;flowAnimation=1;elbow=vertical;" edge="1" parent="1" target="31">
                    <mxGeometry relative="1" as="geometry">
                        <mxPoint x="510" y="320" as="sourcePoint"/>
                        <mxPoint x="510.75" y="400" as="targetPoint"/>
                    </mxGeometry>
                </mxCell>
                <mxCell id="31" value="&lt;div&gt;&lt;font color=&quot;#000000&quot;&gt;&lt;b&gt;Data persistence&lt;/b&gt;&lt;/font&gt;&lt;/div&gt;&lt;div&gt;&lt;br&gt;&lt;/div&gt;" style="text;html=1;align=center;verticalAlign=middle;resizable=0;points=[];autosize=1;strokeColor=none;fillColor=none;rotation=90;fontSize=9;" vertex="1" parent="1">
                    <mxGeometry x="516" y="380" width="100" height="40" as="geometry"/>
                </mxCell>
            </root>
        </mxGraphModel>
    </diagram>
</mxfile>